 http://www.imdb.com/title/tt1111422/

Source: The Taking Of Pelham 123 2009 1080p DTS multisub HUN Highcode Thanks!

Subs: Arabic, Czech, Danish, Dutch, English, Estonian, Farsi-Persian, Finnish, Greek, Hungarian, Icelandic, Indonesian, Italian, Norwegian, Polish, Portuguese, Romanian, Slovenian, Spanish, Swedish and Turkish.

Sample and Screens included.

General
Complete name                            : The Taking Of Pelham 123-720p MP4 AAC x264 BRRip 2009-CC.mp4
Format                                   : MPEG-4
Format profile                           : Base Media
Codec ID                                 : isom
File size                                : 2.81 GiB
Duration                                 : 1h 45mn
Overall bit rate mode                    : Variable
Overall bit rate                         : 3 802 Kbps
Encoded date                             : UTC 2012-10-09 16:49:53

Video
ID                                       : 1
Format                                   : AVC
Format/Info                              : Advanced Video Codec
Format profile                           : High@L4.1
Format settings, CABAC                   : Yes
Format settings, ReFrames                : 5 frames
Codec ID                                 : avc1
Codec ID/Info                            : Advanced Video Coding
Duration                                 : 1h 45mn
Bit rate                                 : 3 492 Kbps
Maximum bit rate                         : 27.6 Mbps
Width                                    : 1 280 pixels
Height                                   : 528 pixels
Display aspect ratio                     : 2.40:1
Frame rate mode                          : Variable
Frame rate                               : 23.976 fps
Minimum frame rate                       : 11.579 fps
Maximum frame rate                       : 24.390 fps
Color space                              : YUV
Chroma subsampling                       : 4:2:0
Bit depth                                : 8 bits
Scan type                                : Progressive
Bits/(Pixel*Frame)                       : 0.216
Stream size                              : 2.53 GiB (90%)
Writing library                          : x264 core 112

Audio
ID                                       : 2
Format                                   : AAC
Format/Info                              : Advanced Audio Codec
Format profile                           : LC
Codec ID                                 : 40
Duration                                 : 1h 45mn
Bit rate mode                            : Variable
Bit rate                                 : 384 Kbps
Maximum bit rate                         : 759 Kbps
Channel(s)                               : 6 channels
Channel positions                        : Front: L C R, Side: L R, LFE
Sampling rate                            : 48.0 KHz
Compression mode                         : Lossy
Delay relative to video                  : 83ms
Stream size                              : 291 MiB (10%)
Language                                 : English

Enjoy...

Requested by Clair.

Coming up soon: Hard Candy, Cast Away, The Sting, and more...